<?xml version="1.0" encoding="UTF-8" standalone="no"?>
<!-- Created with Inkscape (http://www.inkscape.org/) -->

<svg
   width="255.22255mm"
   height="125.90913mm"
   viewBox="0 0 255.22255 125.90913"
   version="1.1"
   id="svg1"
   xml:space="preserve"
   inkscape:version="1.4.3 (0d15f75, 2025-12-25)"
   sodipodi:docname="willow-cup-coffee-white.svg"
   xmlns:inkscape="http://www.inkscape.org/namespaces/inkscape"
   xmlns:sodipodi="http://sodipodi.sourceforge.net/DTD/sodipodi-0.dtd"
   xmlns="http://www.w3.org/2000/svg"
   xmlns:svg="http://www.w3.org/2000/svg"><sodipodi:namedview
     id="namedview1"
     pagecolor="#ffffff"
     bordercolor="#cccccc"
     borderopacity="1"
     inkscape:showpageshadow="0"
     inkscape:pageopacity="1"
     inkscape:pagecheckerboard="0"
     inkscape:deskcolor="#d1d1d1"
     inkscape:document-units="mm"
     inkscape:zoom="0.52221046"
     inkscape:cx="124.47089"
     inkscape:cy="-14.362026"
     inkscape:window-width="1920"
     inkscape:window-height="1009"
     inkscape:window-x="-8"
     inkscape:window-y="-8"
     inkscape:window-maximized="1"
     inkscape:current-layer="layer1" /><defs
     id="defs1" /><g
     inkscape:label="Layer 1"
     inkscape:groupmode="layer"
     id="layer1"
     transform="translate(-6.5343765,-196.09883)"><path
       style="fill:#ffffff;fill-opacity:1"
       d="m 60.541286,321.81083 c -3.749885,-0.98677 -6.178616,-3.93691 -6.417142,-7.79479 -0.329329,-5.32653 3.879644,-9.2471 9.495921,-8.84526 1.914156,0.13696 4.23291,1.0688 5.132173,2.06248 0.48083,0.53131 0.472473,0.55837 -0.460555,1.4914 l -0.950272,0.95027 -0.600534,-0.55948 c -1.72672,-1.60869 -5.185535,-1.8097 -7.193149,-0.41804 -2.366347,1.64032 -3.187591,5.33444 -1.735149,7.80503 0.390982,0.66506 1.214239,1.55803 1.829462,1.98438 1.015629,0.70383 1.319074,0.77518 3.296813,0.77518 2.078803,0 2.229023,-0.0408 3.291084,-0.89432 l 1.112856,-0.89431 0.94958,0.94958 c 0.932343,0.93234 0.940691,0.9594 0.459864,1.49071 -0.986614,1.09019 -3.154911,1.90366 -5.352348,2.008 -1.13567,0.0539 -2.422041,0.004 -2.858604,-0.11083 z m 17.594792,-0.16003 c -1.606041,-0.52193 -2.998383,-1.72913 -3.746555,-3.24838 -0.582804,-1.18345 -0.624234,-1.60195 -0.707221,-7.14407 l -0.08815,-5.88698 h 1.454476 1.454476 l 0.08888,5.6224 c 0.09996,6.32297 0.28097,7.01422 2.082259,7.9518 1.3598,0.70778 3.96203,0.51862 4.91134,-0.35703 1.29925,-1.19841 1.42966,-1.90852 1.42966,-7.78471 v -5.43246 h 1.48034 1.48034 l -0.0976,6.01927 c -0.0909,5.61067 -0.13756,6.09492 -0.68681,7.13366 -0.71209,1.34669 -1.44123,2.06471 -2.81609,2.77318 -1.36637,0.70409 -4.597064,0.88704 -6.239378,0.35332 z m 46.434382,0.0192 c -2.45441,-0.77623 -4.44623,-2.5225 -5.4627,-4.78927 -0.88213,-1.96718 -0.85259,-4.8009 0.0706,-6.76976 0.88258,-1.88233 2.30322,-3.30092 4.17863,-4.17259 1.24657,-0.5794 1.85108,-0.68694 3.85934,-0.68659 2.01062,3.4e-4 2.60775,0.10707 3.83646,0.68571 0.80036,0.37692 1.72961,0.98388 2.06499,1.3488 l 0.60978,0.6635 -1.04212,0.82538 c -0.86426,0.6845 -1.09394,0.76294 -1.34572,0.45956 -0.16697,-0.20119 -0.91705,-0.62971 -1.66682,-0.95225 -1.87795,-0.80788 -3.93033,-0.65846 -5.65327,0.41156 -2.93688,1.82391 -3.36621,6.27897 -0.86644,8.9909 1.29356,1.40335 2.39917,1.80111 4.61431,1.66006 1.38137,-0.088 1.91357,-0.26556 2.9185,-0.9739 l 1.22906,-0.86632 0.91172,0.8786 0.91171,0.87859 -1.11205,0.99197 c -0.63185,0.56362 -1.68945,1.16344 -2.4492,1.38906 -1.60206,0.47576 -4.14898,0.48802 -5.60674,0.027 z m 18.68784,0.0709 c -5.1602,-1.221 -7.88305,-7.18904 -5.46256,-11.97305 0.91078,-1.80013 2.08227,-2.89858 4.09285,-3.83766 1.25571,-0.58651 1.81065,-0.68197 3.84853,-0.66203 1.80241,0.0176 2.68159,0.15714 3.61677,0.57391 3.06508,1.36598 4.98162,4.31094 4.98198,7.65532 3e-4,2.66278 -0.70672,4.43747 -2.39811,6.01957 -0.72775,0.68073 -1.88483,1.4867 -2.57129,1.79105 -1.44659,0.64137 -4.35577,0.84755 -6.10817,0.43289 z m 5.19978,-2.84517 c 1.10511,-0.59144 2.40975,-2.45332 2.73385,-3.90152 0.86726,-3.87534 -1.70288,-7.25021 -5.51041,-7.23577 -2.85659,0.0108 -4.73145,1.41014 -5.51896,4.11907 -0.95317,3.27878 1.05382,6.85152 4.21413,7.50179 0.98312,0.20229 3.31641,-0.0742 4.08139,-0.48357 z m -54.976164,-5.32226 v -8.20209 h 3.98387 c 4.888064,0 6.047304,0.26069 7.536034,1.69467 1.66661,1.60533 2.05892,3.38187 1.30639,5.91591 -0.7579,2.55211 -3.11738,3.76651 -7.318074,3.76651 h -2.33322 v 2.51354 2.51354 h -1.5875 -1.5875 z m 7.717894,0.5211 c 1.65358,-0.45928 2.13748,-1.0379 2.27722,-2.72295 0.21909,-2.64205 -1.04353,-3.61899 -4.677294,-3.61899 h -2.14282 v 3.30729 3.3073 l 1.78593,-10e-4 c 0.98227,-8.1e-4 2.222904,-0.12284 2.756964,-0.27117 z m 58.16336,-0.5211 v -8.20209 h 5.55625 5.55625 v 1.19063 1.19062 h -4.10104 -4.10105 v 2.51354 2.51355 h 3.57188 3.57187 v 1.19062 1.19063 h -3.57187 -3.57188 v 3.30729 3.30729 h -1.4552 -1.45521 z m 15.67274,0.0661 0.07,-8.13594 5.62239,-0.0714 5.6224,-0.0714 v 1.19589 1.19588 h -4.08906 -4.08905 l -0.16739,0.8923 c -0.0921,0.49076 -0.12723,1.59209 -0.0781,2.44739 l 0.0893,1.5551 3.63802,0.0736 3.63802,0.0736 v 1.18316 1.18316 h -3.71928 -3.71929 l 0.0813,3.30777 0.0813,3.30777 -1.52518,-4.8e-4 -1.52517,-4.8e-4 z m 15.81267,-0.0661 v -8.20209 h 5.68855 5.68854 v 1.19063 1.19062 h -4.24404 -4.24403 l 0.0768,2.18282 0.0768,2.18281 3.63802,0.0736 3.63802,0.0736 v 1.18316 1.18316 h -3.70416 -3.70417 v 2.38125 2.38125 h 4.43368 4.43368 l -0.0947,1.19062 -0.0947,1.19063 h -5.79419 -5.7942 z m 16.66875,0 v -8.20209 h 5.68855 5.68854 v 1.19063 1.19062 h -4.23334 -4.23333 v 2.24896 2.24896 h 3.70417 3.70416 v 1.19062 1.19063 h -3.70416 -3.70417 v 2.38125 2.38125 h 4.36563 4.36562 v 1.19062 1.19063 h -5.82083 -5.82084 z m -72.21204,-20.01173 c -0.71563,-0.90977 -0.69432,-1.71934 0.064,-2.43174 1.22472,-1.15056 3.0918,-0.45036 3.0918,1.15951 0,1.84501 -2.05392,2.67304 -3.15579,1.27223 z m -10.47025,0.0352 c -0.14552,-0.05 -5.20568,-0.21914 -11.24479,-0.37575 -6.03912,-0.15661 -13.30193,-0.36954 -16.139584,-0.47317 -4.98318,-0.18199 -5.07103,-0.19454 -2.57239,-0.36745 1.42285,-0.0985 5.649564,-0.26115 9.392714,-0.36153 3.74314,-0.10038 11.14776,-0.34212 16.45471,-0.53718 6.09091,-0.22389 9.82055,-0.26285 10.11424,-0.10567 0.87561,0.46861 1.07673,1.22504 0.48346,1.81831 -0.47393,0.47392 -0.86103,0.53283 -3.3795,0.51434 -1.56435,-0.0115 -2.96334,-0.0618 -3.10886,-0.1119 z m 17.39636,-0.25755 c -0.75755,-0.55154 -0.75136,-0.95833 0.0257,-1.68833 l 0.62101,-0.58341 6.45659,0.26522 c 3.55113,0.14587 11.0405,0.40144 16.64305,0.56792 5.60255,0.16649 11.25802,0.39102 12.56771,0.49895 l 2.38125,0.19625 -1.98438,0.0397 c -2.23924,0.0448 -24.08176,0.72274 -31.35312,0.97313 -4.16331,0.14336 -4.8374,0.10946 -5.35781,-0.26943 z m 38.29843,-13.4927 c -4.56567,-0.86939 -7.70902,-2.52042 -10.88912,-5.71948 -1.88641,-1.89766 -2.50442,-2.74006 -3.50545,-4.77825 -1.74224,-3.54737 -2.13039,-5.25285 -2.09867,-9.22132 0.0445,-5.57266 1.63115,-9.81354 5.05506,-13.51168 4.19407,-4.52997 9.05009,-6.47422 16.06839,-6.43343 4.37375,0.0254 6.67301,0.53573 10.18646,2.26085 3.16387,1.55347 6.54604,4.94019 8.1483,8.15926 3.57343,7.1793 2.83107,15.62131 -1.92668,21.90993 -2.40063,3.17307 -6.26935,5.67474 -10.71954,6.93168 -2.60347,0.73535 -7.55609,0.9285 -10.31875,0.40244 z m 8.37695,-1.94506 c 4.45104,-1.38945 7.74951,-5.25949 9.39849,-11.02711 0.8574,-2.9989 0.85932,-9.5448 0.004,-12.7 -2.08452,-7.68725 -7.26815,-12.30313 -13.81639,-12.30313 -4.79835,0 -9.06772,2.73568 -11.46307,7.34518 -2.77367,5.33753 -3.09971,13.46404 -0.77743,19.37774 1.85075,4.71295 5.46821,8.25874 9.60064,9.41044 1.82586,0.50886 5.2541,0.45875 7.05403,-0.10312 z m 34.34771,1.81935 c -0.59963,-0.2432 -0.73496,-0.57931 -8.10193,-20.1225 -2.60562,-6.91224 -5.05736,-13.20384 -5.44831,-13.98134 -0.81778,-1.62637 -2.35501,-3.2674 -3.50817,-3.74506 -0.43748,-0.18121 -0.79541,-0.49362 -0.79541,-0.69424 0,-0.30026 1.17004,-0.36478 6.61458,-0.36478 5.60832,0 6.61458,0.0585 6.61458,0.38446 0,0.21146 -0.40573,0.577 -0.90163,0.81232 -1.11546,0.52932 -1.60178,1.61255 -1.39611,3.10971 0.11463,0.83446 5.8353,16.72564 9.1114,25.31013 0.28132,0.73716 -0.13854,1.73645 4.29079,-10.21222 l 2.6639,-7.18622 -1.22827,-3.39711 c -0.67554,-1.86841 -1.5006,-3.93289 -1.83346,-4.58774 -0.70208,-1.38122 -2.05715,-2.75919 -3.09984,-3.15222 -0.40019,-0.15084 -0.72761,-0.4558 -0.72761,-0.67769 0,-0.35099 0.87966,-0.40342 6.76892,-0.40342 7.15691,0 7.70798,0.1099 5.60147,1.11705 -2.16262,1.03397 -2.28708,2.49242 -0.62263,7.29623 1.01342,2.92485 2.41555,6.71415 6.94553,18.77049 0.55999,1.49039 1.0777,2.70811 1.15046,2.70605 0.0728,-0.002 0.92471,-2.17398 1.89323,-4.82648 0.96852,-2.65249 2.41762,-6.60865 3.22023,-8.79146 4.06127,-11.0452 4.47083,-12.80658 3.31846,-14.27158 -0.31015,-0.3943 -0.84593,-0.82413 -1.19062,-0.95518 -0.34469,-0.13105 -0.62672,-0.41981 -0.62672,-0.6417 0,-0.34697 0.68495,-0.40342 4.8948,-0.40342 4.05593,0 4.89479,0.0645 4.89479,0.37636 0,0.20699 -0.4305,0.51843 -0.95667,0.69208 -1.13391,0.37422 -2.69494,1.86595 -3.62984,3.46868 -0.70099,1.20172 -1.99077,4.53548 -6.12665,15.8358 -1.35814,3.71078 -3.32495,9.06859 -4.37069,11.90625 -1.04574,2.83765 -2.02039,5.48679 -2.16588,5.88698 -0.21505,0.59148 -0.4264,0.7276 -1.12974,0.7276 -0.85002,0 -0.88265,-0.0453 -1.86014,-2.57969 -1.32385,-3.43247 -3.88006,-10.20264 -6.09383,-16.13958 -0.99028,-2.65576 -1.86998,-4.82733 -1.95489,-4.82572 -0.0849,0.002 -0.73292,1.57918 -1.44003,3.50573 -4.3399,11.82423 -7.4416,19.93274 -7.68925,20.10135 -0.34192,0.23279 -0.3989,0.23028 -1.08482,-0.0479 z M 41.927989,276.99481 c -1.907209,-4.88584 -5.345,-14.0031 -6.958599,-18.45469 -2.899888,-8.00019 -5.019294,-13.60503 -5.924878,-15.66854 -1.821252,-4.15 -4.18988,-7.10188 -6.764083,-8.42967 -1.412489,-0.72857 -4.937611,-1.00676 -6.655792,-0.52524 -2.79378,0.78295 -5.549857,3.64867 -6.3947415,6.64914 -0.583879,2.07356 -0.535127,5.36172 0.11015,7.42926 1.6710205,5.35412 7.6096945,8.27953 12.2355395,6.02725 1.370113,-0.6671 2.015671,-0.48795 1.053291,0.29229 -1.293926,1.04905 -3.513959,1.6899 -5.876132,1.69627 -1.979815,0.005 -2.461129,-0.0939 -4.021855,-0.82901 -4.4192755,-2.08158 -6.8081675,-6.92821 -6.0611065,-12.29691 0.780351,-5.60793 3.7788115,-9.3225 8.9742405,-11.11753 1.469902,-0.50785 2.286318,-0.60829 4.812888,-0.59206 2.588103,0.0166 3.309208,0.1203 4.82641,0.69391 6.220769,2.35192 8.382456,5.423 13.186134,18.73334 4.806797,13.31899 7.110661,19.60994 7.284585,19.89136 0.155384,0.25141 1.439192,-3.10204 5.593409,-14.6106 l 1.102258,-3.05363 -1.296556,-3.37933 c -0.713106,-1.85863 -1.54973,-3.90231 -1.859163,-4.54152 -0.630692,-1.30283 -2.078851,-2.69593 -3.21376,-3.09156 -0.413866,-0.14427 -0.752483,-0.42926 -0.752483,-0.63331 0,-0.30857 1.135245,-0.37099 6.746875,-0.37099 5.793763,0 6.746875,0.0556 6.746875,0.39332 0,0.21633 -0.408811,0.56414 -0.908469,0.77291 -1.045292,0.43675 -1.737365,1.58082 -1.737365,2.87204 0,1.16581 0.826701,3.59289 5.355639,15.72349 2.074867,5.55746 3.853944,10.0223 3.953503,9.92188 0.194034,-0.19573 0.916291,-2.15151 4.171197,-11.2951 6.485712,-18.21947 8.553812,-22.46057 14.065906,-28.84528 4.3302,-5.01573 8.92986,-8.53518 16.951364,-12.97039 1.50179,-0.83037 3.79766,-2.23903 5.10195,-3.13038 2.62286,-1.79244 9.57905,-8.39326 11.64931,-11.05417 l 1.30627,-1.67895 -1.18121,1.0395 c -0.64967,0.57172 -3.1822,2.89344 -5.62785,5.15937 -2.44564,2.26594 -4.55698,4.1589 -4.69187,4.20658 -0.29887,0.10566 0.27396,-1.5695 1.07892,-3.15514 2.05895,-4.05575 5.73368,-7.72998 9.7503,-9.74896 2.17376,-1.09265 6.64366,-2.75576 6.64366,-2.4719 0,0.0957 -0.21817,0.41974 -0.48482,0.72017 -0.26664,0.30042 -1.18258,1.67731 -2.0354,3.05976 -3.98715,6.46327 -7.15717,9.58446 -12.42874,12.2373 -1.76207,0.88673 -3.6216,2.18196 -2.77812,1.93506 0.21828,-0.0639 1.88515,-0.5857 3.70416,-1.15957 1.81901,-0.57388 4.20026,-1.25268 5.29167,-1.50844 3.47231,-0.81373 6.11094,-2.21396 8.90369,-4.72488 1.13582,-1.0212 1.38323,-1.41166 1.53476,-2.42213 0.20527,-1.36885 1.47122,-3.03443 2.30635,-3.03443 2.31262,0 1.92892,2.40897 -0.63287,3.97338 -0.76797,0.46898 -2.05115,1.47196 -2.85151,2.22885 -0.80037,0.75689 -1.78635,1.59215 -2.19107,1.85614 -0.40473,0.26399 -0.68608,0.52976 -0.62523,0.59061 0.2509,0.2509 6.88969,-1.02051 9.90653,-1.89722 5.10783,-1.48437 10.56449,-3.7836 14.56177,-6.13579 2.45194,-1.44284 3.20698,-2.21893 1.12579,-1.15719 -1.99791,1.01926 -12.2624,5.32398 -12.39018,5.19619 -0.29029,-0.29028 3.79572,-3.93276 5.78477,-5.15683 2.88872,-1.77774 5.73744,-2.76392 11.16987,-3.86685 2.49702,-0.50696 4.83442,-1.00236 5.19422,-1.10089 0.64667,-0.1771 0.6446,-0.16706 -0.18064,0.87489 -1.26675,1.5994 -4.52955,4.60962 -6.16251,5.68546 -3.60765,2.37681 -6.92229,3.62241 -12.5172,4.70379 -2.24163,0.43326 -4.47961,0.96389 -4.9733,1.17919 -0.8721,0.38031 -0.82203,0.39205 1.76148,0.41302 3.37835,0.0274 8.97429,0.46544 12.55445,0.98269 5.05965,0.731 5.65861,0.76978 9.67759,0.62667 l 3.98905,-0.14205 2.4345,-1.26475 c 3.12474,-1.62333 5.74576,-2.29764 8.93087,-2.29764 2.26776,0 7.66821,0.82347 8.51752,1.29877 0.47499,0.26582 -4.17351,2.30401 -7.08934,3.1084 -2.59914,0.71703 -6.20838,0.82664 -8.33623,0.25317 -1.13883,-0.30692 -1.23088,-0.37767 -0.66146,-0.50839 0.3638,-0.0835 2.14974,-0.47378 3.96875,-0.86724 1.81901,-0.39346 3.54541,-0.81611 3.83646,-0.93922 1.34309,-0.56814 -5.667,0.53254 -10.31875,1.62019 -1.16417,0.2722 -2.95011,0.58123 -3.96875,0.68672 -1.43117,0.14822 -1.70176,0.23736 -1.19063,0.39221 6.67132,2.02117 11.92406,4.08779 13.09688,5.15279 0.43656,0.39643 1.68671,1.10481 2.77812,1.57417 1.09141,0.46937 2.87734,1.31484 3.96875,1.87884 2.23066,1.1527 2.91042,1.45954 2.91042,1.31374 0,-0.20382 -3.64703,-2.39401 -6.47454,-3.88823 l -2.91817,-1.54212 1.32292,1.9e-4 c 3.00618,4.4e-4 6.37622,1.13468 9.439,3.17682 1.64242,1.09511 7.62662,6.93027 7.62662,7.43667 0,0.38565 -2.08555,0.0175 -5.6285,-0.99361 -5.05808,-1.44348 -7.46388,-2.86446 -11.12256,-6.5695 -2.06068,-2.0868 -3.11545,-2.6351 -8.78123,-4.56475 -2.33328,-0.79467 -7.54343,-2.19751 -8.16505,-2.19844 -0.12514,-1.9e-4 0.47017,0.51723 1.32292,1.14983 0.85275,0.6326 1.77727,1.40651 2.05449,1.71979 0.27722,0.31329 0.66385,0.56962 0.85919,0.56962 0.19534,0 1.15081,0.37592 2.12326,0.83538 2.59788,1.22744 5.22163,3.92833 6.64224,6.83753 0.97377,1.99416 2.05926,5.49502 1.78792,5.76635 -0.0553,0.0553 -1.09228,-0.55542 -2.30442,-1.35715 -2.54196,-1.68129 -4.76035,-3.72941 -6.0046,-5.54376 -0.96831,-1.41198 -2.77527,-5.2163 -2.47646,-5.21389 0.29029,0.002 3.43684,3.05266 5.45704,5.29012 1.86666,2.06742 1.89654,1.70621 0.0656,-0.79375 -1.62554,-2.21957 -4.15123,-4.75544 -5.33093,-5.35241 -0.58208,-0.29456 -2.01083,-1.1636 -3.175,-1.93121 -3.42812,-2.26037 -6.31782,-3.25273 -10.71563,-3.67989 -0.94588,-0.0919 -2.3151,-0.22889 -3.04271,-0.30448 l -1.32291,-0.13743 1.32291,0.74913 c 0.72761,0.41202 1.8587,1.11603 2.51355,1.56446 0.65484,0.44843 1.60734,1.024 2.11666,1.27903 0.50933,0.25504 1.313,0.83092 1.78594,1.27974 1.35331,1.28427 1.08444,2.82889 -0.49242,2.82889 -0.82656,0 -1.9963,-1.21731 -2.24423,-2.33549 -0.0862,-0.38897 -0.20841,-0.9002 -0.27149,-1.13606 -0.15481,-0.57891 -3.29993,-2.62571 -5.26009,-3.4232 -1.4798,-0.60206 -1.91058,-0.64587 -6.35,-0.64587 -2.63408,0 -6.0632,0.17088 -7.67292,0.38237 -2.70834,0.35582 -2.83693,0.39849 -1.85208,0.61449 0.58208,0.12766 2.24896,0.57216 3.70417,0.98777 1.45521,0.41562 3.55091,0.94697 4.65711,1.18077 3.92416,0.82941 7.19225,2.84081 10.82101,6.65997 1.69517,1.78411 4.7625,5.82889 4.7625,6.28014 0,0.26427 -6.91486,-2.22036 -8.87031,-3.18726 -2.66048,-1.3155 -5.93169,-3.99591 -7.79852,-6.39005 -0.86112,-1.10436 -1.51511,-2.0585 -1.4533,-2.12031 0.2344,-0.2344 4.92576,2.44347 8.59713,4.90732 1.33401,0.89525 -1.16441,-1.53057 -2.91041,-2.82584 -2.30462,-1.70969 -4.54758,-2.8136 -6.76534,-3.32969 -6.25086,-1.45463 -9.83168,-1.55282 -14.54026,-0.39873 -4.27743,1.04842 -8.07524,2.39934 -11.97346,4.2591 -3.16602,1.51043 -6.526534,3.4011 -6.353234,3.57439 0.0474,0.0474 1.39386,-0.26528 2.992074,-0.69492 4.56487,-1.22715 6.59226,-1.56515 9.38813,-1.56515 4.25851,0 8.27897,1.01041 13.81078,3.47088 l 2.56599,1.14132 -1.24307,0.33275 c -5.5113,1.4753 -11.90019,1.89037 -16.05974,1.04337 -2.58261,-0.5259 -8.33437,-2.29673 -8.33437,-2.56595 0,-0.41348 6.26219,-0.59185 9.92187,-0.28261 2.03729,0.17215 4.47807,0.36865 5.42396,0.43667 l 1.71979,0.12366 -1.85208,-0.51866 c -1.01865,-0.28526 -3.45943,-0.72175 -5.42396,-0.96998 -5.79395,-0.73211 -10.757264,-0.0181 -15.161814,2.18115 -3.9312,1.96289 -7.84547,5.18005 -10.8549,8.92171 -3.27771,4.07521 -5.266318,7.5039 -7.439622,12.82715 -1.032725,2.52953 -8.864262,23.9089 -10.72885,29.28875 -1.81213,5.22851 -1.795017,5.19763 -2.830437,5.10775 l -0.929237,-0.0807 -2.440244,-6.35 c -1.342134,-3.4925 -3.319215,-8.76102 -4.393512,-11.70781 -1.074298,-2.9468 -2.018903,-5.35782 -2.099123,-5.35782 -0.08022,0 -2.097056,5.29828 -4.481861,11.77396 l -4.335957,11.774 h -0.866511 c -0.853746,0 -0.882105,-0.0399 -1.925143,-2.71198 z m 41.499757,2.09066 c 0,-0.19621 0.46711,-0.54023 1.03803,-0.76449 0.76214,-0.29938 1.20164,-0.71439 1.65364,-1.56149 l 0.61562,-1.15374 v -15.47813 c 0,-15.11737 -0.0127,-15.50279 -0.54584,-16.53645 -0.3435,-0.66602 -0.90747,-1.23806 -1.52136,-1.54315 -0.53653,-0.26665 -0.97551,-0.6536 -0.97551,-0.8599 0,-0.3133 1.0459,-0.37508 6.35,-0.37508 6.80525,0 7.34977,0.12076 5.36874,1.19063 -1.28562,0.6943 -1.85785,1.73861 -2.18212,3.98227 -0.34043,2.35547 -0.34348,25.797 -0.004,28.42918 0.29056,2.25094 0.77386,3.08704 2.19198,3.79211 0.53631,0.26664 0.97511,0.6536 0.97511,0.85989 0,0.31352 -1.06401,0.37509 -6.48229,0.37509 -5.26152,0 -6.48229,-0.0672 -6.48229,-0.35674 z m 18.256254,0.015 c 0,-0.19062 0.5172,-0.59785 1.14932,-0.90496 2.381,-1.15678 2.60192,-2.9525 2.46694,-20.05227 -0.088,-11.14309 -0.15551,-12.85079 -0.55109,-13.93003 -0.51492,-1.40481 -1.09539,-2.02079 -2.17685,-2.31002 -0.41581,-0.1112 -0.75603,-0.37222 -0.75603,-0.58003 0,-0.31531 1.08366,-0.38955 6.54844,-0.44861 7.04825,-0.0762 7.67733,0.055 5.41437,1.12911 -0.85219,0.40448 -1.27075,0.84088 -1.77635,1.85208 l -0.66146,1.32292 v 15.21354 c 0,16.56372 -0.0504,16.00836 1.5292,16.85582 1.23704,0.66368 7.0705,0.63966 9.38894,-0.0387 1.77839,-0.52032 3.55663,-1.64622 4.62215,-2.92654 0.78759,-0.94636 2.0545,-3.38827 2.0545,-3.95995 0,-0.37003 0.79956,-0.57625 1.09372,-0.2821 0.068,0.068 -0.2469,2.18133 -0.69971,4.69636 l -0.8233,4.57277 -13.41139,0.0686 c -10.91471,0.0558 -13.4114,0.004 -13.4114,-0.27801 z m 31.48542,-0.002 c 0,-0.18928 0.51719,-0.59542 1.14932,-0.90253 1.47025,-0.71431 2.01948,-1.84129 2.34615,-4.81419 0.35677,-3.24679 0.12048,-27.67243 -0.27957,-28.89965 -0.44686,-1.37081 -1.265,-2.30499 -2.23996,-2.55762 -0.46356,-0.12012 -0.88152,-0.41924 -0.92879,-0.66471 -0.0788,-0.40911 0.46701,-0.44631 6.54803,-0.44631 7.13886,0 7.7851,0.14046 5.5095,1.19747 -2.3941,1.11206 -2.57517,2.43491 -2.57768,18.83169 -0.002,14.46745 0.0723,15.32906 1.40837,16.28206 0.77135,0.5502 1.12495,0.59815 4.41046,0.59815 4.69638,0 6.68675,-0.57011 8.8305,-2.52937 1.35404,-1.23752 3.07575,-3.99226 3.07575,-4.92122 0,-0.19504 0.23813,-0.35461 0.52917,-0.35461 0.29104,0 0.52916,0.17355 0.52916,0.38568 0,0.46964 -1.2948,8.02754 -1.48641,8.6763 -0.12789,0.43304 -1.00064,0.46302 -13.48037,0.46302 -10.7761,0 -13.34363,-0.0662 -13.34363,-0.34416 z"
       id="path1" /></g></svg>
